HIERARCHY
ROOT Hips
{
	OFFSET 0.000000 0.000000 0.000000
	CHANNELS 6 Xposition Yposition Zposition Xrotation Yrotation Zrotation
	JOINT Spine
	{
		OFFSET 0.000000 0.053497 0.080245
		CHANNELS 3 Xrotation Yrotation Zrotation
		JOINT Spine1
		{
			OFFSET 0.000000 0.018579 0.105368
			CHANNELS 3 Xrotation Yrotation Zrotation
			JOINT Spine2
			{
				OFFSET 0.000000 0.009325 0.106586
				CHANNELS 3 Xrotation Yrotation Zrotation
				JOINT Spine3
				{
					OFFSET 0.000000 0.000000 0.106993
					CHANNELS 3 Xrotation Yrotation Zrotation
					JOINT Neck
					{
						OFFSET 0.000000 -0.040122 0.280858
						CHANNELS 3 Xrotation Yrotation Zrotation
						JOINT Head
						{
							OFFSET 0.000000 -0.025546 0.144881
							CHANNELS 3 Xrotation Yrotation Zrotation
							End Site
							{
								OFFSET 0.000000 0.000000 0.000000
							}
						}
					}
					JOINT RightShoulder
					{
						OFFSET -0.032541 -0.054234 0.175720
						CHANNELS 3 Xrotation Yrotation Zrotation
						JOINT RightArm
						{
							OFFSET -0.161619 0.000000 0.000000
							CHANNELS 3 Xrotation Yrotation Zrotation
							JOINT RightForeArm
							{
								OFFSET -0.257104 0.000000 0.000000
								CHANNELS 3 Xrotation Yrotation Zrotation
								JOINT RightHand
								{
									OFFSET -0.273485 0.000000 0.000000
									CHANNELS 3 Xrotation Yrotation Zrotation
									JOINT RightHandEnd
									{
										OFFSET -0.070844 0.000000 0.000000
										CHANNELS 3 Xrotation Yrotation Zrotation
										End Site
										{
											OFFSET 0.000000 0.000000 0.000000
										}
									}
									JOINT RightHandThumb1
									{
										OFFSET -0.028338 -0.047230 -0.018892
										CHANNELS 3 Xrotation Yrotation Zrotation
										End Site
										{
											OFFSET 0.000000 0.000000 0.000000
										}
									}
								}
							}
						}
					}
					JOINT LeftShoulder
					{
						OFFSET 0.032541 -0.054234 0.175720
						CHANNELS 3 Xrotation Yrotation Zrotation
						JOINT LeftArm
						{
							OFFSET 0.161619 0.000000 0.000000
							CHANNELS 3 Xrotation Yrotation Zrotation
							JOINT LeftForeArm
							{
								OFFSET 0.257104 0.000000 0.000000
								CHANNELS 3 Xrotation Yrotation Zrotation
								JOINT LeftHand
								{
									OFFSET 0.273485 0.000000 0.000000
									CHANNELS 3 Xrotation Yrotation Zrotation
									JOINT LeftHandEnd
									{
										OFFSET 0.070844 0.000000 0.000000
										CHANNELS 3 Xrotation Yrotation Zrotation
										End Site
										{
											OFFSET 0.000000 0.000000 0.000000
										}
									}
									JOINT LeftHandThumb1
									{
										OFFSET 0.028338 -0.047230 -0.018892
										CHANNELS 3 Xrotation Yrotation Zrotation
										End Site
										{
											OFFSET 0.000000 0.000000 0.000000
										}
									}
								}
							}
						}
					}
				}
			}
		}
	}
	JOINT RightUpLeg
	{
		OFFSET -0.096537 0.000000 -0.028202
		CHANNELS 3 Xrotation Yrotation Zrotation
		JOINT RightLeg
		{
			OFFSET 0.000000 0.000000 -0.431842
			CHANNELS 3 Xrotation Yrotation Zrotation
			JOINT RightFoot
			{
				OFFSET 0.000000 0.000000 -0.456398
				CHANNELS 3 Xrotation Yrotation Zrotation
				JOINT RightToeBase
				{
					OFFSET 0.000000 -0.128905 -0.046918
					CHANNELS 3 Xrotation Yrotation Zrotation
					End Site
					{
						OFFSET 0.000000 0.000000 0.000000
					}
				}
			}
		}
	}
	JOINT LeftUpLeg
	{
		OFFSET 0.096537 0.000000 -0.028202
		CHANNELS 3 Xrotation Yrotation Zrotation
		JOINT LeftLeg
		{
			OFFSET 0.000000 0.000000 -0.431842
			CHANNELS 3 Xrotation Yrotation Zrotation
			JOINT LeftFoot
			{
				OFFSET 0.000000 0.000000 -0.456398
				CHANNELS 3 Xrotation Yrotation Zrotation
				JOINT LeftToeBase
				{
					OFFSET 0.000000 -0.128905 -0.046918
					CHANNELS 3 Xrotation Yrotation Zrotation
					End Site
					{
						OFFSET 0.000000 0.000000 0.000000
					}
				}
			}
		}
	}
}
MOTION
Frames: 14
Frame Time: 0.033333
-0.038796 -0.118461 0.848596 3.019000 0.452000 -1.368900 18.571100 0.411500 0.989900 9.529800 0.293100 0.165800 0.794200 0.476600 -0.745200 0.397900 0.329300 -0.446500 16.450400 -2.439100 0.419800 -9.495700 0.298000 1.415500 5.623500 1.817400 -20.114100 -65.664000 -28.288700 -85.584800 -0.000100 0.000100 115.800200 -41.528300 -25.407100 0.204400 0.000000 0.000000 0.000000 0.000000 0.000000 0.000000 3.905200 -2.981000 14.787100 -56.528000 36.666900 74.573100 -0.000100 -0.000100 -110.744300 -41.625000 2.603400 -2.399600 0.000000 0.000000 0.000000 0.000000 0.000000 0.000000 -33.101300 8.025700 -11.159900 61.953600 0.000000 0.000000 -31.979700 -5.680000 -25.203800 -0.778800 0.000000 0.000000 -37.885800 -2.772500 -5.445000 61.657500 0.000000 0.000000 -34.044900 18.396100 17.589500 12.225400 0.000000 0.000000 
-0.039294 -0.119601 0.851403 3.502600 0.367700 -1.733500 18.708300 0.421700 0.973800 9.584400 0.325800 0.145500 0.761000 0.359000 -0.773300 0.426500 0.327300 -0.442600 16.514000 -2.256300 0.521300 -9.713600 0.367000 1.335000 5.907700 1.681500 -20.349100 -65.964900 -28.057300 -86.023300 -0.000100 0.000100 115.732600 -41.577400 -23.943100 -0.086900 0.000000 0.000000 0.000000 0.000000 0.000000 0.000000 4.290800 -2.848000 14.349800 -57.238300 36.295200 75.631600 -0.000100 -0.000100 -109.893300 -40.425300 1.658700 -2.494200 0.000000 0.000000 0.000000 0.000000 0.000000 0.000000 -33.244500 7.636200 -10.697700 61.217700 0.000000 0.000000 -31.716200 -5.301400 -25.219400 -0.511700 0.000000 0.000000 -37.835700 -2.783800 -5.347000 60.903900 0.000000 0.000000 -33.922400 18.092800 17.896600 12.018700 0.000000 0.000000 
-0.040183 -0.120691 0.853623 3.978900 0.291700 -2.209300 18.878300 0.497900 0.931800 9.638000 0.394300 0.129900 0.787200 0.314400 -0.848600 0.433100 0.313200 -0.449000 16.387100 -2.195300 0.614400 -9.932100 0.466100 1.346900 6.131000 1.611200 -20.474300 -66.313800 -27.997200 -86.336600 -0.000100 0.000100 115.791400 -41.776400 -23.002100 0.029700 0.000000 0.000000 0.000000 0.000000 0.000000 0.000000 4.410600 -2.862100 14.080500 -56.966300 35.747500 75.887300 -0.000100 -0.000100 -109.792500 -39.640700 1.003100 -2.654900 0.000000 0.000000 0.000000 0.000000 0.000000 0.000000 -33.468000 7.229800 -10.219400 60.647600 0.000000 0.000000 -31.503000 -5.126500 -25.178600 -0.344200 0.000000 0.000000 -37.854200 -2.949800 -5.126300 60.324700 0.000000 0.000000 -33.826600 17.903600 18.039200 11.756400 0.000000 0.000000 
-0.041260 -0.121808 0.855779 4.457500 0.232200 -2.704000 19.055800 0.606000 0.880000 9.706800 0.472400 0.116200 0.898200 0.354000 -1.021200 0.406000 0.286100 -0.452000 16.189400 -2.356700 0.649300 -10.062500 0.548300 1.563600 6.088600 1.359200 -20.503900 -66.548300 -28.178400 -86.393500 -0.000100 0.000100 115.664700 -42.354100 -23.223300 0.317100 0.000000 0.000000 0.000000 0.000000 0.000000 0.000000 4.383000 -2.993000 14.176700 -56.496200 35.541500 75.678000 -0.000100 -0.000100 -109.975400 -39.568400 0.713400 -2.869300 0.000000 0.000000 0.000000 0.000000 0.000000 0.000000 -33.691000 6.873500 -9.822900 60.084500 0.000000 0.000000 -31.271500 -5.347900 -25.189100 -0.387900 0.000000 0.000000 -37.890600 -3.165900 -4.912100 59.786100 0.000000 0.000000 -33.695400 17.773600 18.137000 11.616000 0.000000 0.000000 
-0.042078 -0.122898 0.857961 4.945200 0.217200 -3.117400 19.211800 0.658600 0.852200 9.788300 0.519200 0.109200 1.034100 0.383500 -1.231500 0.368800 0.244100 -0.415700 16.020600 -2.615800 0.598600 -10.118300 0.578900 1.821100 5.907100 0.941500 -20.499800 -66.735900 -28.534300 -86.373600 -0.000100 0.000100 115.306700 -42.959700 -23.676900 0.356400 0.000000 0.000000 0.000000 0.000000 0.000000 0.000000 4.456300 -3.130400 14.323000 -56.691100 35.750600 75.749100 -0.000100 -0.000100 -109.797800 -39.824700 0.348500 -3.063600 0.000000 0.000000 0.000000 0.000000 0.000000 0.000000 -33.895000 6.654300 -9.651100 59.503300 0.000000 0.000000 -30.953600 -5.932900 -25.266500 -0.594800 0.000000 0.000000 -37.962300 -3.313000 -4.862300 59.256800 0.000000 0.000000 -33.554800 17.642300 18.379800 11.710500 0.000000 0.000000 
-0.042222 -0.123635 0.860021 5.455300 0.235600 -3.400200 19.350900 0.603800 0.875300 9.866600 0.513700 0.100200 1.133700 0.332200 -1.337600 0.346100 0.208000 -0.359900 15.857700 -2.796200 0.457800 -10.195500 0.572900 1.836200 5.836300 0.596600 -20.550900 -67.012000 -29.023600 -86.447500 -0.000100 0.000100 114.846200 -43.085600 -23.386900 0.148400 0.000000 0.000000 0.000000 0.000000 0.000000 0.000000 4.708000 -3.117200 14.224100 -57.468900 36.181500 76.235500 -0.000100 -0.000100 -109.199600 -39.823500 -0.207100 -3.111300 0.000000 0.000000 0.000000 0.000000 0.000000 0.000000 -34.130200 6.620500 -9.746000 58.965300 0.000000 0.000000 -30.612000 -6.640600 -25.280900 -0.764500 0.000000 0.000000 -38.124600 -3.346700 -4.966500 58.764800 0.000000 0.000000 -33.420800 17.492200 18.724600 11.874700 0.000000 0.000000 
-0.041626 -0.123784 0.862259 5.978200 0.205200 -3.541500 19.518400 0.485000 0.930700 9.920900 0.460800 0.107100 1.213100 0.273800 -1.347500 0.339200 0.192500 -0.320300 15.675400 -2.860100 0.255000 -10.350200 0.569100 1.584000 5.920000 0.468400 -20.634300 -67.340000 -29.625800 -86.567400 -0.000100 0.000100 114.369200 -42.814000 -22.517100 -0.065500 0.000000 0.000000 0.000000 0.000000 0.000000 0.000000 5.014900 -2.933100 14.058100 -58.184800 36.808600 76.638300 -0.000100 -0.000100 -108.585300 -39.320300 -0.663900 -3.016900 0.000000 0.000000 0.000000 0.000000 0.000000 0.000000 -34.381900 6.739400 -9.947000 58.406100 0.000000 0.000000 -30.331600 -7.185500 -25.144200 -0.762400 0.000000 0.000000 -38.319200 -3.270000 -5.037400 58.194900 0.000000 0.000000 -33.190700 17.326600 18.920200 11.847800 0.000000 0.000000 
-0.040650 -0.123500 0.865421 6.446200 0.098500 -3.549000 19.742000 0.348900 1.006300 10.003300 0.407100 0.121200 1.296400 0.259800 -1.341900 0.342600 0.188400 -0.320200 15.570600 -2.857600 0.065400 -10.568400 0.590800 1.315600 6.075400 0.477300 -20.644300 -67.615400 -30.255400 -86.574600 -0.000100 0.000100 113.952700 -42.473400 -21.887300 -0.211500 0.000000 0.000000 0.000000 0.000000 0.000000 0.000000 5.253200 -2.725700 14.095900 -58.560900 37.678300 76.731000 -0.000100 -0.000100 -108.255300 -38.497200 -0.840400 -2.927900 0.000000 0.000000 0.000000 0.000000 0.000000 0.000000 -34.487300 6.850800 -10.028300 57.606300 0.000000 0.000000 -30.013100 -7.327000 -24.976100 -0.639700 0.000000 0.000000 -38.353300 -3.157500 -4.922300 57.325400 0.000000 0.000000 -32.751100 17.192700 18.815700 11.575200 0.000000 0.000000 
-0.039583 -0.123040 0.869760 6.860400 -0.067300 -3.460000 19.964800 0.248800 1.088400 10.099900 0.374700 0.122500 1.405400 0.257900 -1.394000 0.364600 0.158800 -0.319300 15.675500 -2.805100 -0.035700 -10.811000 0.633900 1.230500 6.246200 0.534100 -20.498900 -67.763000 -30.768300 -86.405800 -0.000100 0.000100 113.679400 -42.065700 -22.025900 -0.289200 0.000000 0.000000 0.000000 0.000000 0.000000 0.000000 5.474400 -2.620800 14.367300 -58.809700 38.647500 76.773600 -0.000100 -0.000100 -108.176400 -37.694000 -0.764300 -2.877200 0.000000 0.000000 0.000000 0.000000 0.000000 0.000000 -34.403700 6.844600 -9.868200 56.482100 0.000000 0.000000 -29.505400 -6.986100 -24.926000 -0.492900 0.000000 0.000000 -38.167900 -3.056200 -4.613600 56.084000 0.000000 0.000000 -32.172700 17.124100 18.556200 11.123300 0.000000 0.000000 
-0.038532 -0.122768 0.874771 7.220900 -0.199200 -3.306100 20.123900 0.166300 1.157000 10.193500 0.351300 0.123400 1.527000 0.200900 -1.480800 0.422700 0.089700 -0.283300 16.007300 -2.690800 -0.060000 -11.021800 0.672900 1.248400 6.418400 0.668700 -20.320100 -67.757700 -31.158400 -86.101800 -0.000100 0.000100 113.499900 -41.567800 -22.732700 -0.238500 0.000000 0.000000 0.000000 0.000000 0.000000 0.000000 5.699600 -2.605100 14.714100 -58.955900 39.401000 76.980200 -0.000100 -0.000100 -108.203100 -37.169000 -0.488100 -2.758500 0.000000 0.000000 0.000000 0.000000 0.000000 0.000000 -34.121400 6.711800 -9.599300 55.137100 0.000000 0.000000 -28.931200 -6.413400 -24.908500 -0.333900 0.000000 0.000000 -37.801300 -2.991500 -4.272000 54.637700 0.000000 0.000000 -31.698800 17.082100 18.378500 10.432400 0.000000 0.000000 
-0.037470 -0.122842 0.879777 7.599500 -0.256800 -3.099500 20.145900 0.066700 1.208300 10.228500 0.309800 0.123000 1.683800 0.095700 -1.513300 0.511900 0.012700 -0.225500 16.462800 -2.567300 -0.074600 -11.143600 0.687100 1.193500 6.562200 0.923100 -20.291400 -67.616500 -31.526800 -85.762500 -0.000100 0.000100 113.253300 -41.225300 -23.262300 -0.095100 0.000000 0.000000 0.000000 0.000000 0.000000 0.000000 5.942600 -2.622500 15.170800 -58.932600 39.909500 77.200800 -0.000100 -0.000100 -108.216100 -36.863600 -0.261900 -2.605500 0.000000 0.000000 0.000000 0.000000 0.000000 0.000000 -33.745200 6.573300 -9.467100 53.743300 0.000000 0.000000 -28.610300 -6.113400 -24.641600 -0.174600 0.000000 0.000000 -37.409500 -2.925900 -4.059600 53.191600 0.000000 0.000000 -31.443900 17.037900 18.341300 9.458700 0.000000 0.000000 
-0.036472 -0.123401 0.884677 7.960000 -0.273900 -2.851500 20.093100 -0.049200 1.250200 10.216000 0.242700 0.130600 1.869100 0.001400 -1.446000 0.599700 -0.053600 -0.166500 16.931600 -2.487200 -0.104000 -11.157000 0.655200 1.044000 6.679100 1.262600 -20.442000 -67.426700 -31.934400 -85.501500 -0.000100 0.000100 112.902600 -41.104500 -23.005400 -0.016100 0.000000 0.000000 0.000000 0.000000 0.000000 0.000000 6.151800 -2.633000 15.730700 -58.734400 40.248500 77.252400 -0.000100 -0.000100 -108.186700 -36.557400 -0.420500 -2.588400 0.000000 0.000000 0.000000 0.000000 0.000000 0.000000 -33.245300 6.546700 -9.611800 52.334400 0.000000 0.000000 -28.576700 -6.355400 -24.008100 -0.075600 0.000000 0.000000 -36.967700 -2.834300 -3.988300 51.759600 0.000000 0.000000 -31.249100 17.105700 18.299900 8.456600 0.000000 0.000000 
-0.035799 -0.124328 0.889632 8.322100 -0.284000 -2.591500 19.994100 -0.156700 1.295200 10.192500 0.178600 0.141600 2.032200 -0.070900 -1.302400 0.659600 -0.109400 -0.105800 17.346300 -2.443100 -0.099900 -11.116500 0.584800 0.917000 6.813300 1.595600 -20.605400 -67.290300 -32.344900 -85.371000 -0.000100 0.000100 112.592300 -40.943500 -22.221400 -0.024700 0.000000 0.000000 0.000000 0.000000 0.000000 0.000000 6.365300 -2.608900 16.271200 -58.510800 40.470900 77.141000 -0.000100 -0.000100 -108.145800 -36.246300 -0.900000 -2.744100 0.000000 0.000000 0.000000 0.000000 0.000000 0.000000 -32.679500 6.594800 -9.955800 50.866700 0.000000 0.000000 -28.418300 -6.812000 -23.272600 -0.026500 0.000000 0.000000 -36.500000 -2.781600 -3.935800 50.277100 0.000000 0.000000 -30.846500 17.373600 18.100000 7.782400 0.000000 0.000000 
-0.035654 -0.125588 0.894664 8.663000 -0.296000 -2.330200 19.900800 -0.223300 1.330000 10.190900 0.137100 0.151400 2.117100 -0.126000 -1.155600 0.698600 -0.160800 -0.034300 17.673500 -2.399700 -0.039800 -11.096100 0.499700 0.875500 7.004500 1.824400 -20.673400 -67.265600 -32.782000 -85.314500 -0.000100 0.000100 112.403100 -40.717900 -21.792100 0.019400 0.000000 0.000000 0.000000 0.000000 0.000000 0.000000 6.633400 -2.525100 16.660100 -58.325600 40.573900 76.975700 -0.000100 -0.000100 -108.125700 -36.193200 -1.210400 -2.915700 0.000000 0.000000 0.000000 0.000000 0.000000 0.000000 -32.070400 6.613100 -10.321700 49.329800 0.000000 0.000000 -27.807700 -6.932100 -22.792400 0.088900 0.000000 0.000000 -35.983500 -2.803900 -3.813400 48.716900 0.000000 0.000000 -30.103500 17.610500 17.744400 7.475500 0.000000 0.000000 
